<svg width="30" height="39" viewBox="0 0 30 39" fill="none" xmlns="http://www.w3.org/2000/svg">
<path d="M17.1584 16.0214C24.3027 18.6509 29.5617 21.578 29.5617 27.7301C29.5617 35.0232 23.2112 38.4465 16.2158 38.4465C10.163 38.4465 4.45745 36.2139 0.488395 31.9472L5.69778 26.7874C7.78153 28.8216 11.5025 31.848 15.7196 31.848C18.8949 31.848 21.6236 30.6076 21.6236 27.7301C21.6236 24.4556 17.7538 23.513 12.8421 21.33C8.77379 19.5439 2.37369 16.716 2.37369 10.6632C2.37369 3.91576 8.72418 0.39323 15.2235 0.39323C21.3259 0.39323 26.5849 2.82427 29.909 6.24758L25.1461 11.2585C23.4097 9.62128 19.391 6.99178 15.1739 6.99178C13.8839 6.99178 10.3118 7.38868 10.3118 10.5143C10.3118 12.7469 12.1971 14.1857 17.1584 16.0214Z" fill="white"/>
</svg>
